<svg id="Layer_1" data-name="Layer 1" xmlns="http://www.w3.org/2000/svg" xmlns:xlink="http://www.w3.org/1999/xlink" viewBox="0 0 150.67 150.67"><defs><style>.cls-1{fill:none;}.cls-2{fill:#f5f6fb;}.cls-3{clip-path:url(#clip-path);}.cls-4{fill:#fff;}.cls-5{fill:#ffdeae;}.cls-6{fill:#33a359;}.cls-7{fill:#282828;}.cls-8{fill:#fdd5bf;}.cls-9{fill:#faae7d;}</style><clipPath id="clip-path"><circle class="cls-1" cx="75.33" cy="75.33" r="75.33"/></clipPath></defs><title>Avatar-01</title><circle class="cls-2" cx="75.33" cy="75.33" r="75.33"/><g class="cls-3"><polygon class="cls-4" points="47.42 62.14 58.56 42.31 97.54 39.2 108.68 66.15 114.47 81.29 109.79 105.79 100.21 122.5 83.51 134.3 78.61 137.42 64.8 127.17 42.08 96.66 39.18 80.85 47.42 62.14"/><path class="cls-5" d="M65,122.81s-4.66-.48-10.15,9.31a27.21,27.21,0,0,0-3,19l53.26-.36s1.07-16.12-6.45-23.29a12.29,12.29,0,0,0-6.81-4.89l-13.3,12.75Z"/><path class="cls-6" d="M80.41,134.44s1.34,5.25,5.2,5.75c0,0,6.64-7.42,5.92-15.84C91.53,124.35,83.51,129.79,80.41,134.44Z"/><path class="cls-6" d="M65.55,124.29s-2.51,7.3,5.92,15.9c0,0,3.19.51,5.07-5.57C76.54,134.62,70.48,126.07,65.55,124.29Z"/><path class="cls-7" d="M62.37,80.15c-1.72,0-3.12,1.86-3.12,4.16s1.4,4.16,3.12,4.16,3.12-1.86,3.12-4.16S64.09,80.15,62.37,80.15Z"/><path class="cls-7" d="M94.61,80.5c-1.72,0-3.12,1.86-3.12,4.16s1.4,4.16,3.12,4.16,3.12-1.87,3.12-4.16S96.34,80.5,94.61,80.5Z"/><path class="cls-7" d="M80.1,88.4a1,1,0,0,0-1.47-1.47A1.41,1.41,0,0,1,76.3,87c-.88-1-2.35.47-1.47,1.47A3.45,3.45,0,0,0,80.1,88.4Z"/><path class="cls-7" d="M55.89,75.41c-.71,1.14,1.09,2.19,1.79,1,1.28-2,5-2.1,6.19-.08a1,1,0,0,0,1.79-1C63.61,71.94,58,72,55.89,75.41Z"/><path class="cls-7" d="M93.05,76.46c1.27-2,5-2.1,6.18-.08a1,1,0,0,0,1.8-1c-2.06-3.39-7.68-3.29-9.78.08C90.55,76.55,92.35,77.6,93.05,76.46Z"/><path class="cls-7" d="M83.38,95.29c-4,.95-8,1.29-11.86-.3-1.24-.51-1.78,1.5-.55,2,4.19,1.73,8.64,1.33,13,.31C85.23,97,84.68,95,83.38,95.29Z"/><path class="cls-7" d="M118,93.77c0-2.81,1-5.39,1.56-8.09a14.85,14.85,0,0,0-1.63-10.89c-1.18-1.94-3.3-3.21-4.41-5.14-1.26-2.19-.31-4.67-.65-7a7,7,0,0,0-.73-2.2,9.77,9.77,0,0,0,5.9-7.64c.7-4.56-1.76-8.78-4.59-12.12-6.8-8-16.7-13.51-26.83-16A48.55,48.55,0,0,0,76,23.44l0-.05c0-.14,0-.28,0-.42.13-1.58,0-3.34-1.15-4.52s-3.62-1.59-5.31-1.55c-3.67.09-4.91,3-4.63,6.07a9.1,9.1,0,0,0,.25,1.46c-12.54,2.55-24,9.89-29.91,21.71-2.36,4.72-4.1,10.48-2.36,15.69a11.42,11.42,0,0,0,8.8,7.63,6.58,6.58,0,0,1-.92,3.47c-2.12,3.69-4.7,6.64-5.55,11s.73,7.49,1.85,11.59c1.47,5.41-1.18,10.32-2.6,15.41-.92,3.37-1.47,7.1-.13,10.44.73,1.82,2,3.23,3.09,4.86,1.7,2.69.84,4.55.36,7.38-1.22,7.14,7.38,10.06,13.1,8.4a49.7,49.7,0,0,0-.36,8.31c0,1.31,2.07,1.31,2,0-.28-8.16,1-16.74,6.93-23a14.26,14.26,0,0,1,4-2.9c0,5.46,2.82,10.93,5.48,15.59.53.92,1.21,2.59,2.5,2.53,1-.06,2.28-1.73,2.9-2.4,1.46-1.54,2.74-3.23,4.14-4.82,1.4,1.59,2.69,3.28,4.14,4.82.63.68,1.78,2.24,2.76,2.38,1.38.19,2.08-1.54,2.64-2.51,2.65-4.62,5.39-10,5.47-15.48a17.6,17.6,0,0,1,3.39,2.79c5.87,6.22,7.2,14.8,6.93,23-.05,1.31,2,1.31,2,0a47.8,47.8,0,0,0-.46-9.07c6.83-.89,12.78-3.69,11.93-11.79-.24-2.26-.95-4.41-1.38-6.64-.76-4,.14-6.42,2-9.79,2-3.54,2.08-7,1.34-11C118.84,99.31,118,96.56,118,93.77ZM66.93,22.58c0-.16,0-.32,0-.48,0-1.79.82-3.28,3.21-3.16,1.06,0,3,.3,3.6,1.26a2,2,0,0,1,.29.69S74,21,74,21a3.48,3.48,0,0,1,0,.36,5.9,5.9,0,0,1,0,.94,2.19,2.19,0,0,1,0,.36L74,23c0,.15,0,.29,0,.42v.05a51.32,51.32,0,0,0-6.78.63c0-.2-.1-.4-.14-.61S67,23.13,67,23,66.94,22.71,66.93,22.58ZM41,57.53c1.3,2.15.16,5,.25,7.31a24.76,24.76,0,0,0,.28,2.56C35,66,33.4,58.64,34.91,52.71a32.29,32.29,0,0,1,7.5-13.37,43.44,43.44,0,0,1,26.88-13.7,50.1,50.1,0,0,1,31.25,7,42.59,42.59,0,0,1,12.7,11.08c3.41,4.72,4.61,12.47-2.11,15-.19-.31-.38-.62-.56-.94-1.76-3.15-1.65-6.34-1.38-9.82a.81.81,0,0,0,0-.32,1,1,0,0,0-.74-1C96,42.41,82.74,43.55,70,45.08c-10.49,1.25-21.48,3.27-29.52,10.65A1.05,1.05,0,0,0,41,57.53Zm19.84,65.92a22.5,22.5,0,0,0-6.39,7.49,30.68,30.68,0,0,0-3.17,8.79.38.38,0,0,0-.1,0,9.33,9.33,0,0,1-8.45-.46c-3.1-1.89-3.08-4.38-2.35-7.58s-.21-5.22-2-7.7c-3.2-4.42-3.17-8.56-1.6-13.66,1.18-3.85,2.88-7.66,2.83-11.76S36.93,91,37,86.85c0-4.94,2.85-8.46,5.31-12.43A10.13,10.13,0,0,0,44,70c.14-1.77-.63-3.4-.72-5.15-.15-3,.91-5.66-.52-8.24,4.64-4,10.26-6.15,16.15-7.53-.26,7.18-3.16,14.24-10.4,16.9a1.12,1.12,0,0,0-.43,1.79c0,3.43.09,6.87.26,10.31-3-.92-5.65,2.28-6,5.2-.22,1.88-.21,4.1,1.15,5.56a7.77,7.77,0,0,0,6,2.17c.2,1.57.43,3.15.67,4.72,1.29,8,4.79,14.38,12.61,17.29a40.41,40.41,0,0,0,8.41,2.07C72.56,119.79,63.76,121.32,60.86,123.45Zm0-72.51a57,57,0,0,0,17,14.26c2.51,1.32,5.81,2.52,8.39.65a4.69,4.69,0,0,0,1.82-2.46c4.26,4,11.69,8.44,16.89,6,.32,9.78.27,20.52-2.52,29.83-1.63,5.42-4.81,9.92-10.22,12a39.81,39.81,0,0,1-15.59,2.11,41.9,41.9,0,0,1-13.86-2.48c-5.42-2.17-8.51-6.47-9.94-12-2.56-9.92-2.73-21.07-2.72-31.3C56.92,64.52,60.18,58,60.88,50.94Zm-11.66,38A6,6,0,0,1,46,88.11c-1.42-.82-1.65-2.26-1.61-3.77.05-2,1.58-5.61,4.12-3.87C48.67,83.3,48.9,86.12,49.22,88.93Zm22.25,51.26c-.2-.3-.38-.61-.56-.93-.41-.66-.76-1.36-1.12-2-2.09-4-4.21-8.37-4.24-12.93,2.41,2.12,4.64,4.42,6.92,6.69a20.51,20.51,0,0,0,4.07,3.64C75.12,136.55,73.23,139.57,71.47,140.19Zm6.1-7.44c-2-.68-4-3.52-5.42-5-1.69-1.7-3.4-3.37-5.2-5A25.46,25.46,0,0,0,70.36,121a5.87,5.87,0,0,0,2.94-5.7,50.84,50.84,0,0,0,9.87,0,5.77,5.77,0,0,0,2.51,5.47,18.21,18.21,0,0,0,4.5,2.08c-1.71,1.83-3.49,3.59-5.36,5.26C83.21,129.53,79.75,133.47,77.57,132.75Zm9.72,4.47c-.36.68-.72,1.38-1.11,2q-.27.48-.57.93c-1.82-.64-3.77-3.84-5.2-5.75a38.58,38.58,0,0,0,3-2.48,82.68,82.68,0,0,0,8.16-7.61C91.48,128.89,89.37,133.26,87.29,137.22ZM116,94.33c.17,4.2,2,8.22,1.83,12.42s-3.67,7.18-4.19,11.39c-.54,4.44,1.84,8.55,1.78,13-.08,6.09-5.35,7.56-10.36,8.15a30.47,30.47,0,0,0-3.07-8.3,22.59,22.59,0,0,0-6.38-7.49c-2.91-2.13-11.76-3.73-10.29-8.42,1.06-.16,2.11-.34,3.13-.56,8.22-1.78,13.63-6.59,16-14.68a59.36,59.36,0,0,0,1.92-9.24c3.19-.36,6.41-2.3,6.86-5.74.53-4-2.08-8-6-8.57,0-2.82-.08-5.6-.18-8.31a1.05,1.05,0,0,0-1.63-1.29s-.06,0-.08.07a.48.48,0,0,0-.11.09c-2.72,2.27-7.56.35-10.27-1A22.34,22.34,0,0,1,87.72,60c-.82-1-2.07.27-1.63,1.26,1.31,3-2.78,3.8-4.8,3.22a17.88,17.88,0,0,1-3.8-1.87,53.77,53.77,0,0,1-6.33-4.35,57.91,57.91,0,0,1-9.59-9.7c3.52-.67,7.09-1.11,10.56-1.5,11.67-1.29,23.67-2.16,35,1.52-.25,3.6-.21,7,1.69,10.25a14.6,14.6,0,0,1,1.9,3.38,13.67,13.67,0,0,1,.07,4,8.56,8.56,0,0,0,.5,3.62c.73,1.71,2.22,2.78,3.44,4.12a12.47,12.47,0,0,1,3,6.16C118.63,84.92,115.79,89.46,116,94.33Zm-9.32-5.9c.34-3.33.5-6.72.54-10.07A5.5,5.5,0,0,1,111,85.45,5.28,5.28,0,0,1,106.68,88.43Z"/><path class="cls-7" d="M111.13,58.7c-.19-.3-.38-.62-.56-.94-1.76-3.14-1.65-6.33-1.38-9.82a1.09,1.09,0,0,0,0-.32,1.05,1.05,0,0,0-.75-1C96,42.41,82.74,43.55,70,45.08c-10.49,1.26-21.48,3.27-29.53,10.65A1.06,1.06,0,0,0,41,57.54c1.29,2.15.16,5,.25,7.3a24.53,24.53,0,0,0,.27,2.56C35,66,33.4,58.64,34.91,52.72A32.36,32.36,0,0,1,42.4,39.34a43.51,43.51,0,0,1,26.89-13.7,50.1,50.1,0,0,1,31.25,7,42.71,42.71,0,0,1,12.7,11.08C116.64,48.41,117.84,56.16,111.13,58.7Z"/><path class="cls-7" d="M74,23.4v.05a49.68,49.68,0,0,0-6.78.63c-.67-2.51-.31-5.3,2.93-5.14,1.06,0,3,.3,3.6,1.26S74.07,22.45,74,23.4Z"/><path class="cls-8" d="M63.66,98.75a4.2,4.2,0,1,1-4.2-4.2A4.2,4.2,0,0,1,63.66,98.75Z"/><path class="cls-8" d="M101,97.81a4.2,4.2,0,1,1-4.2-4.2A4.2,4.2,0,0,1,101,97.81Z"/><path class="cls-9" d="M60.86,123.45a22.5,22.5,0,0,0-6.39,7.49,30.68,30.68,0,0,0-3.17,8.79.38.38,0,0,0-.1,0,9.33,9.33,0,0,1-8.45-.46c-3.1-1.89-3.08-4.38-2.35-7.58s-.21-5.22-2-7.7c-3.2-4.42-3.17-8.56-1.6-13.66,1.18-3.85,2.88-7.66,2.83-11.76S36.93,91,37,86.85c0-4.94,2.85-8.46,5.31-12.43A10.13,10.13,0,0,0,44,70c.14-1.77-.63-3.4-.72-5.15-.15-3,.91-5.66-.52-8.24,4.64-4,10.26-6.15,16.15-7.53-.26,7.18-3.16,14.24-10.4,16.9a1.12,1.12,0,0,0-.43,1.79c0,3.43.09,6.87.26,10.31-3-.92-5.65,2.28-6,5.2-.22,1.88-.21,4.1,1.15,5.56a7.77,7.77,0,0,0,6,2.17c.2,1.57.43,3.15.67,4.72,1.29,8,4.79,14.38,12.61,17.29a40.41,40.41,0,0,0,8.41,2.07C72.56,119.79,63.76,121.32,60.86,123.45Z"/><path class="cls-9" d="M113.64,118.14c-.54,4.44,1.84,8.55,1.78,13-.08,6.09-5.35,7.56-10.36,8.15a30.47,30.47,0,0,0-3.07-8.3,22.59,22.59,0,0,0-6.38-7.49c-2.91-2.13-11.76-3.73-10.29-8.42,1.06-.16,2.11-.34,3.13-.56,8.22-1.78,13.63-6.59,16-14.68a59.36,59.36,0,0,0,1.92-9.24c3.19-.36,6.41-2.3,6.86-5.74.53-4-2.08-8-6-8.57,0-2.82-.08-5.6-.18-8.31a1.05,1.05,0,0,0-1.63-1.29s-.06,0-.08.07a.48.48,0,0,0-.11.09c-2.72,2.27-7.56.35-10.27-1A22.34,22.34,0,0,1,87.72,60c-.82-1-2.07.27-1.63,1.26,1.31,3-2.78,3.8-4.8,3.22a17.88,17.88,0,0,1-3.8-1.87,53.77,53.77,0,0,1-6.33-4.35,57.91,57.91,0,0,1-9.59-9.7c3.52-.67,7.09-1.11,10.56-1.5,11.67-1.29,23.67-2.16,35,1.52-.25,3.6-.21,7,1.69,10.25a14.6,14.6,0,0,1,1.9,3.38,13.67,13.67,0,0,1,.07,4,8.56,8.56,0,0,0,.5,3.62c.73,1.71,2.22,2.78,3.44,4.12a12.47,12.47,0,0,1,3,6.16c.85,4.87-2,9.41-1.78,14.28.17,4.2,2,8.22,1.83,12.42S114.16,113.93,113.64,118.14Z"/></g></svg>